<?xml version="1.0" encoding="UTF-8" standalone="no"?>
<svg
   xmlns="http://www.w3.org/2000/svg"
   id="BlackBody"
   width="796"
   height="1630.5"
>
   <metadata fmin="1.01E12" fmax="9.55E15" />
   <polyline points="0,677 1,677 6,677 11,677 16,677 21,677 26,677 31,677 36,677 41,677 46,677 51,677 56,677 61,677 66,677 71,677 76,677 81,677 86,677 91,677 96,677 101,677 106,677 111,677 116,677 121,677 126,677 131,676 136,676 141,676 146,676 151,676 156,676 161,676 166,676 171,676 176,676 181,675 186,675 191,675 196,675 201,674 206,674 211,674 216,673 221,673 226,672 231,672 236,671 241,671 246,670 251,669 256,668 261,667 266,666 271,664 276,663 281,661 286,659 291,657 296,655 301,652 306,649 311,646 316,643 321,639 326,634 331,629 336,624 341,618 346,611 351,604 356,595 361,586 366,576 371,565 376,553 381,539 386,524 391,508 396,490 401,470 406,448 411,424 416,398 421,370 426,340 431,307 436,271 441,232 446,190 451,146 456,98 461,47 466,-6 471,-63 476,-122 481,-184 486,-248 491,-313 496,-380 501,-448 506,-515 511,-581 516,-646 521,-707 526,-763 531,-814 536,-858 541,-892 546,-917 551,-931 556,-932 561,-919 566,-893 571,-852 576,-796 581,-727 586,-645 591,-552 596,-450 601,-342 606,-229 611,-116 616,-5 621,102 626,201 631,292 636,372 641,441 646,500 651,547 656,584 661,613 666,634 671,649 676,660 681,667 686,671 691,674 696,675 701,676 706,677 711,677 716,677 721,677 726,677 731,677 736,677 741,677 746,677 751,677 756,677 761,677 766,677 771,677 776,677 781,677 786,677 791,677 796,677" stroke="#cfdaff" stroke-width="3" fill="#cfdaff"></polyline>
   <text x="714" y="-931" fill="#cfdaff" font-size="16" font-weight="bold">10000K</text>
   <polyline points="0,677 1,677 6,677 11,677 16,677 21,677 26,677 31,677 36,677 41,677 46,677 51,677 56,677 61,677 66,677 71,677 76,677 81,677 86,677 91,677 96,677 101,677 106,677 111,677 116,677 121,677 126,677 131,677 136,676 141,676 146,676 151,676 156,676 161,676 166,676 171,676 176,676 181,676 186,675 191,675 196,675 201,675 206,674 211,674 216,674 221,673 226,673 231,672 236,672 241,671 246,671 251,670 256,669 261,668 266,667 271,666 276,664 281,663 286,661 291,659 296,657 301,655 306,652 311,650 316,646 321,643 326,639 331,635 336,630 341,624 346,619 351,612 356,605 361,597 366,588 371,578 376,567 381,556 386,543 391,528 396,513 401,496 406,477 411,457 416,435 421,411 426,385 431,357 436,328 441,295 446,261 451,225 456,186 461,145 466,102 471,57 476,11 481,-37 486,-85 491,-135 496,-184 501,-232 506,-279 511,-324 516,-366 521,-404 526,-437 531,-463 536,-483 541,-494 546,-496 551,-489 556,-471 561,-443 566,-405 571,-356 576,-297 581,-231 586,-158 591,-79 596,2 601,85 606,166 611,245 616,318 621,386 626,445 631,497 636,541 641,577 646,605 651,627 656,643 661,655 666,663 671,669 676,672 681,674 686,676 691,676 696,677 701,677 706,677 711,677 716,677 721,677 726,677 731,677 736,677 741,677 746,677 751,677 756,677 761,677 766,677 771,677 776,677 781,677 786,677 791,677 796,677" stroke="#d9e1ff" stroke-width="3" fill="#d9e1ff"></polyline>
   <text x="714" y="-496" fill="#d9e1ff" font-size="16" font-weight="bold">9000K</text>
   <polyline points="0,677 1,677 6,677 11,677 16,677 21,677 26,677 31,677 36,677 41,677 46,677 51,677 56,677 61,677 66,677 71,677 76,677 81,677 86,677 91,677 96,677 101,677 106,677 111,677 116,677 121,677 126,677 131,677 136,677 141,676 146,676 151,676 156,676 161,676 166,676 171,676 176,676 181,676 186,676 191,675 196,675 201,675 206,675 211,674 216,674 221,674 226,673 231,673 236,672 241,672 246,671 251,671 256,670 261,669 266,668 271,667 276,666 281,665 286,663 291,661 296,660 301,658 306,655 311,653 316,650 321,647 326,644 331,640 336,636 341,631 346,626 351,620 356,614 361,607 366,600 371,591 376,582 381,572 386,561 391,549 396,536 401,522 406,506 411,489 416,471 421,452 426,431 431,408 436,384 441,358 446,331 451,302 456,272 461,240 466,208 471,174 476,140 481,105 486,71 491,37 496,4 501,-28 506,-57 511,-83 516,-106 521,-125 526,-138 531,-146 536,-147 541,-142 546,-129 551,-109 556,-81 561,-47 566,-5 571,42 576,93 581,148 586,206 591,264 596,321 601,376 606,427 611,474 616,516 621,552 626,583 631,608 636,627 641,643 646,654 651,662 656,668 661,671 666,674 671,675 676,676 681,677 686,677 691,677 696,677 701,677 706,677 711,677 716,677 721,677 726,677 731,677 736,677 741,677 746,677 751,677 756,677 761,677 766,677 771,677 776,677 781,677 786,677 791,677 796,677" stroke="#e3e9ff" stroke-width="3" fill="#e3e9ff"></polyline>
   <text x="714" y="-147" fill="#e3e9ff" font-size="16" font-weight="bold">8000K</text>
   <polyline points="0,677 1,677 6,677 11,677 16,677 21,677 26,677 31,677 36,677 41,677 46,677 51,677 56,677 61,677 66,677 71,677 76,677 81,677 86,677 91,677 96,677 101,677 106,677 111,677 116,677 121,677 126,677 131,677 136,677 141,677 146,676 151,676 156,676 161,676 166,676 171,676 176,676 181,676 186,676 191,676 196,675 201,675 206,675 211,675 216,674 221,674 226,674 231,673 236,673 241,673 246,672 251,671 256,671 261,670 266,669 271,668 276,667 281,666 286,665 291,664 296,662 301,660 306,658 311,656 316,654 321,651 326,648 331,645 336,642 341,638 346,633 351,629 356,623 361,618 366,611 371,605 376,597 381,589 386,580 391,570 396,559 401,548 406,535 411,522 416,507 421,492 426,475 431,458 436,439 441,419 446,399 451,378 456,355 461,333 466,310 471,287 476,264 481,241 486,219 491,198 496,179 501,162 506,148 511,137 516,129 521,125 526,126 531,131 536,141 541,156 546,176 551,201 556,230 561,262 566,298 571,335 576,374 581,413 586,450 591,487 596,520 601,551 606,577 611,600 616,620 621,635 626,647 631,657 636,663 641,668 646,672 651,674 656,675 661,676 666,676 671,677 676,677 681,677 686,677 691,677 696,677 701,677 706,677 711,677 716,677 721,677 726,677 731,677 736,677 741,677 746,677 751,677 756,677 761,677 766,677 771,677 776,677 781,677 786,677 791,677 796,677" stroke="#f7f5ff" stroke-width="3" fill="#f7f5ff"></polyline>
   <text x="714" y="125" fill="#f7f5ff" font-size="16" font-weight="bold">7000K</text>
   <polyline points="0,677 1,677 6,677 11,677 16,677 21,677 26,677 31,677 36,677 41,677 46,677 51,677 56,677 61,677 66,677 71,677 76,677 81,677 86,677 91,677 96,677 101,677 106,677 111,677 116,677 121,677 126,677 131,677 136,677 141,677 146,677 151,677 156,676 161,676 166,676 171,676 176,676 181,676 186,676 191,676 196,676 201,675 206,675 211,675 216,675 221,675 226,674 231,674 236,674 241,673 246,673 251,672 256,672 261,671 266,670 271,670 276,669 281,668 286,667 291,666 296,664 301,663 306,661 311,660 316,658 321,655 326,653 331,650 336,648 341,644 346,641 351,637 356,633 361,628 366,623 371,618 376,612 381,605 386,598 391,590 396,582 401,573 406,563 411,553 416,542 421,531 426,519 431,506 436,493 441,479 446,465 451,450 456,436 461,421 466,407 471,393 476,380 481,367 486,356 491,347 496,339 501,333 506,330 511,329 516,332 521,337 526,346 531,357 536,372 541,389 546,409 551,431 556,454 561,478 566,503 571,527 576,550 581,572 586,591 591,609 596,624 601,637 606,648 611,656 616,662 621,667 626,671 631,673 636,675 641,676 646,676 651,677 656,677 661,677 666,677 671,677 676,677 681,677 686,677 691,677 696,677 701,677 706,677 711,677 716,677 721,677 726,677 731,677 736,677 741,677 746,677 751,677 756,677 761,677 766,677 771,677 776,677 781,677 786,677 791,677 796,677" stroke="#fff4ed" stroke-width="3" fill="#fff4ed"></polyline>
   <text x="714" y="329" fill="#fff4ed" font-size="16" font-weight="bold">6000K</text>
   <polyline points="0,677 1,677 6,677 11,677 16,677 21,677 26,677 31,677 36,677 41,677 46,677 51,677 56,677 61,677 66,677 71,677 76,677 81,677 86,677 91,677 96,677 101,677 106,677 111,677 116,677 121,677 126,677 131,677 136,677 141,677 146,677 151,677 156,677 161,676 166,676 171,676 176,676 181,676 186,676 191,676 196,676 201,676 206,676 211,675 216,675 221,675 226,675 231,675 236,674 241,674 246,674 251,673 256,673 261,672 266,672 271,671 276,670 281,670 286,669 291,668 296,667 301,666 306,664 311,663 316,661 321,660 326,658 331,656 336,653 341,651 346,648 351,645 356,642 361,639 366,635 371,631 376,626 381,621 386,616 391,610 396,604 401,598 406,591 411,584 416,577 421,569 426,561 431,553 436,544 441,536 446,528 451,519 456,511 461,504 466,497 471,490 476,485 481,481 486,478 491,476 496,476 501,478 506,481 511,486 516,493 521,502 526,512 531,524 536,537 541,550 546,564 551,578 556,592 561,606 566,618 571,629 576,639 581,648 586,655 591,661 596,666 601,669 606,672 611,674 616,675 621,676 626,676 631,677 636,677 641,677 646,677 651,677 656,677 661,677 666,677 671,677 676,677 681,677 686,677 691,677 696,677 701,677 706,677 711,677 716,677 721,677 726,677 731,677 736,677 741,677 746,677 751,677 756,677 761,677 766,677 771,677 776,677 781,677 786,677 791,677 796,677" stroke="#ffe7cc" stroke-width="3" fill="#ffe7cc"></polyline>
   <text x="714" y="475" fill="#ffe7cc" font-size="16" font-weight="bold">5000K</text>
   <polyline points="0,677 1,677 6,677 11,677 16,677 21,677 26,677 31,677 36,677 41,677 46,677 51,677 56,677 61,677 66,677 71,677 76,677 81,677 86,677 91,677 96,677 101,677 106,677 111,677 116,677 121,677 126,677 131,677 136,677 141,677 146,677 151,677 156,677 161,677 166,677 171,676 176,676 181,676 186,676 191,676 196,676 201,676 206,676 211,676 216,676 221,675 226,675 231,675 236,675 241,675 246,674 251,674 256,674 261,673 266,673 271,672 276,672 281,671 286,671 291,670 296,669 301,668 306,667 311,666 316,665 321,664 326,662 331,661 336,659 341,658 346,656 351,653 356,651 361,649 366,646 371,643 376,640 381,637 386,634 391,630 396,626 401,622 406,618 411,614 416,610 421,605 426,601 431,597 436,593 441,589 446,585 451,582 456,579 461,577 466,575 471,574 476,574 481,575 486,576 491,579 496,582 501,587 506,592 511,598 516,604 521,611 526,618 531,626 536,633 541,640 546,646 551,652 556,657 561,662 566,665 571,668 576,671 581,673 586,674 591,675 596,676 601,676 606,677 611,677 616,677 621,677 626,677 631,677 636,677 641,677 646,677 651,677 656,677 661,677 666,677 671,677 676,677 681,677 686,677 691,677 696,677 701,677 706,677 711,677 716,677 721,677 726,677 731,677 736,677 741,677 746,677 751,677 756,677 761,677 766,677 771,677 776,677 781,677 786,677 791,677 796,677" stroke="#ffd5a1" stroke-width="3" fill="#ffd5a1"></polyline>
   <text x="714" y="574" fill="#ffd5a1" font-size="16" font-weight="bold">4000K</text>
   <polyline points="0,677 1,677 6,677 11,677 16,677 21,677 26,677 31,677 36,677 41,677 46,677 51,677 56,677 61,677 66,677 71,677 76,677 81,677 86,677 91,677 96,677 101,677 106,677 111,677 116,677 121,677 126,677 131,677 136,677 141,677 146,677 151,677 156,677 161,677 166,677 171,677 176,677 181,677 186,676 191,676 196,676 201,676 206,676 211,676 216,676 221,676 226,676 231,676 236,675 241,675 246,675 251,675 256,675 261,674 266,674 271,674 276,673 281,673 286,672 291,672 296,671 301,671 306,670 311,670 316,669 321,668 326,667 331,666 336,665 341,664 346,663 351,661 356,660 361,659 366,657 371,656 376,654 381,652 386,650 391,649 396,647 401,645 406,643 411,641 416,640 421,638 426,637 431,636 436,635 441,634 446,634 451,634 456,634 461,635 466,636 471,637 476,639 481,641 486,644 491,646 496,649 501,652 506,655 511,658 516,661 521,664 526,666 531,669 536,670 541,672 546,673 551,674 556,675 561,676 566,676 571,677 576,677 581,677 586,677 591,677 596,677 601,677 606,677 611,677 616,677 621,677 626,677 631,677 636,677 641,677 646,677 651,677 656,677 661,677 666,677 671,677 676,677 681,677 686,677 691,677 696,677 701,677 706,677 711,677 716,677 721,677 726,677 731,677 736,677 741,677 746,677 751,677 756,677 761,677 766,677 771,677 776,677 781,677 786,677 791,677 796,677" stroke="#ffb969" stroke-width="3" fill="#ffb969"></polyline>
   <text x="714" y="633" fill="#ffb969" font-size="16" font-weight="bold">3000K</text>
   <polyline points="0,677 1,677 6,677 11,677 16,677 21,677 26,677 31,677 36,677 41,677 46,677 51,677 56,677 61,677 66,677 71,677 76,677 81,677 86,677 91,677 96,677 101,677 106,677 111,677 116,677 121,677 126,677 131,677 136,677 141,677 146,677 151,677 156,677 161,677 166,677 171,677 176,677 181,677 186,677 191,677 196,677 201,677 206,676 211,676 216,676 221,676 226,676 231,676 236,676 241,676 246,676 251,676 256,676 261,675 266,675 271,675 276,675 281,675 286,674 291,674 296,674 301,673 306,673 311,673 316,672 321,672 326,672 331,671 336,671 341,670 346,670 351,669 356,669 361,668 366,667 371,667 376,666 381,666 386,665 391,665 396,665 401,664 406,664 411,664 416,664 421,664 426,664 431,665 436,665 441,666 446,666 451,667 456,668 461,669 466,670 471,671 476,672 481,672 486,673 491,674 496,675 501,675 506,676 511,676 516,676 521,676 526,677 531,677 536,677 541,677 546,677 551,677 556,677 561,677 566,677 571,677 576,677 581,677 586,677 591,677 596,677 601,677 606,677 611,677 616,677 621,677 626,677 631,677 636,677 641,677 646,677 651,677 656,677 661,677 666,677 671,677 676,677 681,677 686,677 691,677 696,677 701,677 706,677 711,677 716,677 721,677 726,677 731,677 736,677 741,677 746,677 751,677 756,677 761,677 766,677 771,677 776,677 781,677 786,677 791,677 796,677" stroke="#ff8d0b" stroke-width="3" fill="#ff8d0b"></polyline>
   <text x="714" y="664" fill="#ff8d0b" font-size="16" font-weight="bold">2000K</text>
   <polyline points="0,677 1,677 6,677 11,677 16,677 21,677 26,677 31,677 36,677 41,677 46,677 51,677 56,677 61,677 66,677 71,677 76,677 81,677 86,677 91,677 96,677 101,677 106,677 111,677 116,677 121,677 126,677 131,677 136,677 141,677 146,677 151,677 156,677 161,677 166,677 171,677 176,677 181,677 186,677 191,677 196,677 201,677 206,677 211,677 216,677 221,677 226,677 231,677 236,677 241,677 246,677 251,676 256,676 261,676 266,676 271,676 276,676 281,676 286,676 291,676 296,676 301,676 306,676 311,676 316,676 321,676 326,676 331,676 336,675 341,675 346,675 351,675 356,675 361,675 366,675 371,675 376,676 381,676 386,676 391,676 396,676 401,676 406,676 411,676 416,676 421,676 426,677 431,677 436,677 441,677 446,677 451,677 456,677 461,677 466,677 471,677 476,677 481,677 486,677 491,677 496,677 501,677 506,677 511,677 516,677 521,677 526,677 531,677 536,677 541,677 546,677 551,677 556,677 561,677 566,677 571,677 576,677 581,677 586,677 591,677 596,677 601,677 606,677 611,677 616,677 621,677 626,677 631,677 636,677 641,677 646,677 651,677 656,677 661,677 666,677 671,677 676,677 681,677 686,677 691,677 696,677 701,677 706,677 711,677 716,677 721,677 726,677 731,677 736,677 741,677 746,677 751,677 756,677 761,677 766,677 771,677 776,677 781,677 786,677 791,677 796,677" stroke="#ff3300" stroke-width="3" fill="#ff3300"></polyline>
   <text x="714" y="675" fill="#ff3300" font-size="16" font-weight="bold">1000K</text>
   </svg>