<?xml version="1.0" encoding="UTF-8" standalone="no"?>
<svg
   xmlns="http://www.w3.org/2000/svg"
   id="sunAtmo"
   width="215"
   height="403"
>
	<metadata fmin="90.9E12" fmax="1E15" />
	<polyline stroke="white" stroke-width="1" fill="hsla(64,100%,50%,0.7)" points="8,680 0,660 8,660 11,672 14,673 29,675 36,655 40,655 48,672 63,629 68,629 77,678 84,595 88,561 96,622 97,612 97,612 98,529 103,513 108,519 109,561 111,553 115,553 116,468 116,476 119,462 122,476 126,420 129,510 132,391 138,391 138,357 155,323 162,289 173,281 183,306 187,510 195,544 208,595 211,680"></polyline>
</svg>