<?xml version="1.0" encoding="UTF-8" standalone="no"?>
<svg
   xmlns="http://www.w3.org/2000/svg"
   id="sunAtmo"
   width="340"
   height="2146"
>
   <metadata fmin="29.8E12" fmax="1.5E15" />
   <polyline stroke="white" stroke-width="1" fill="white" points="340,2141 340,2139 340,2139 339,2138 338,2137 338,2137 338,2136 337,2136 337,2135 337,2131 336,2122 336,2118 335,2112 335,2116 335,2114 334,2105 334,2109 334,2112 333,2110 332,2101 332,2098 332,2098 331,2107 331,2095 330,2080 330,2088 330,2092 329,2105 329,2105 328,2092 328,2098 328,2090 328,2096 327,2091 326,2100 326,2107 326,2089 326,2097 325,2093 325,2104 324,2100 324,2103 324,2094 324,2074 323,2081 323,2084 322,2095 322,2095 322,2089 322,2101 321,2088 321,2087 320,2099 320,2102 319,2091 319,2085 319,2057 319,2039 319,2017 318,2012 318,2038 317,2044 317,2043 316,2025 316,1971 316,1872 316,1866 316,1886 315,1876 315,1886 314,1894 314,1853 313,1914 313,1931 313,1942 312,2009 312,1946 312,1888 312,1906 312,1980 311,2057 311,2034 311,1915 310,1839 310,1816 309,1902 309,2005 309,1826 308,1775 308,1839 308,1690 308,1523 308,1546 308,1601 307,1601 307,1637 307,1598 306,1654 306,1615 306,1733 305,1661 305,1743 305,1701 304,1662 304,1515 304,1536 303,1566 303,1571 303,1501 303,1533 302,1662 302,1651 302,1639 302,1558 302,1439 302,1399 302,1439 301,1502 301,1483 301,1436 301,1455 301,1457 301,1424 301,1473 301,1451 301,1381 300,1471 300,1577 300,1523 300,1397 300,1316 300,1333 300,1473 300,1504 300,1378 300,1387 299,1434 299,1368 299,1302 299,1299 299,1410 299,1451 299,1373 299,1388 299,1500 298,1543 298,1542 298,1528 298,1492 298,1500 298,1464 298,1294 298,1097 298,1035 297,1038 297,1096 297,1181 297,1232 297,1233 297,1194 297,1103 297,1002 297,1009 297,1140 296,1178 296,1225 296,1241 296,1206 295,1164 295,1381 295,1280 294,1230 294,1209 294,1154 294,1210 294,1151 293,1161 293,1427 293,1179 293,1227 292,1244 292,1198 292,1281 291,1027 291,1153 291,1275 291,1031 290,1013 290,1088 290,1208 290,1255 290,1519 289,1010 289,1167 289,1252 289,971 288,1188 288,1131 288,883 288,897 287,932 287,1058 287,815 287,1071 286,839 286,1081 286,1308 286,1268 286,1005 285,1045 285,855 285,805 285,1146 284,857 284,1050 284,1413 284,1462 283,1119 283,1192 283,1075 283,1180 283,1234 282,919 282,923 282,748 282,1191 281,1657 281,1045 281,768 281,1496 281,1106 280,608 280,491 280,497 280,350 279,343 279,488 279,544 279,474 279,522 278,601 278,322 278,440 278,644 278,327 277,355 277,388 277,407 277,410 276,302 276,479 276,460 276,443 276,386 275,347 275,562 275,433 275,376 275,449 274,446 274,575 274,557 274,669 274,1010 273,458 273,498 273,413 273,474 273,421 272,215 272,338 272,577 272,319 272,431 272,213 271,164 271,235 271,171 271,323 270,253 270,67 270,171 270,117 270,0 269,35 269,203 269,174 269,165 269,110 269,67 268,44 268,173 268,135 268,104 268,89 267,40 267,104 267,168 267,102 267,223 267,129 266,150 266,154 266,267 266,126 266,103 265,153 265,93 265,128 265,188 265,69 264,135 264,68 264,109 264,54 264,121 263,125 263,175 263,314 263,519 263,314 263,230 262,184 262,137 262,248 262,248 262,256 262,86 261,218 261,127 261,126 261,278 261,174 260,287 260,332 260,250 260,210 260,275 260,151 259,183 259,238 259,225 259,228 259,197 259,147 258,277 258,283 258,270 258,244 258,475 258,418 258,490 257,316 257,313 257,238 257,321 257,250 256,186 256,214 256,470 256,316 256,247 256,226 256,192 255,181 255,373 255,221 255,286 255,154 254,273 254,262 254,240 254,312 254,374 254,263 254,319 253,265 253,265 253,243 253,265 253,311 253,281 252,249 252,282 252,273 252,298 252,262 252,246 251,247 251,323 251,298 251,357 251,336 251,301 251,320 250,294 250,283 250,290 250,346 250,315 250,257 250,334 249,284 249,374 249,321 249,252 249,268 249,277 248,314 248,298 248,287 248,360 248,316 248,306 248,291 247,271 247,287 247,284 247,360 247,314 247,296 247,394 246,532 246,331 246,357 246,336 246,348 246,370 245,361 245,339 245,363 245,386 245,369 245,398 245,393 244,425 244,357 244,367 244,380 244,384 244,386 244,401 243,400 243,441 243,398 243,439 243,461 243,431 243,431 243,535 242,437 242,420 242,437 242,410 242,454 242,431 241,478 241,488 241,512 241,447 241,447 241,447 241,467 240,505 240,493 240,488 240,490 239,493 239,530 239,523 238,517 238,541 238,586 238,538 237,545 237,612 237,760 237,595 236,573 236,589 236,584 236,609 235,598 235,628 235,623 234,634 234,636 234,646 234,652 233,665 233,689 233,677 233,683 232,696 232,696 232,708 232,728 231,719 231,758 231,756 231,729 230,744 230,760 230,759 230,771 230,778 229,791 229,817 229,814 229,797 228,795 228,799 228,826 228,819 227,827 227,836 227,838 227,867 226,887 226,859 226,866 226,862 226,875 225,883 225,886 225,890 225,897 224,905 224,908 224,904 224,924 223,960 223,942 223,941 223,937 223,957 222,949 222,958 222,958 222,969 221,965 221,968 221,971 221,987 220,1002 220,1011 220,993 220,1010 220,1003 220,1016 219,1030 219,1025 219,1050 219,1031 218,1030 218,1038 218,1041 218,1081 217,1065 217,1072 217,1070 217,1069 217,1073 217,1077 216,1112 216,1093 216,1094 216,1104 216,1101 215,1118 215,1113 215,1121 215,1175 215,1143 214,1173 214,1269 214,1135 214,1149 213,1149 213,1147 213,1176 213,1266 213,1179 212,1160 212,1168 212,1165 212,1162 212,1187 212,1186 211,1198 211,1183 211,1199 211,1197 211,1202 210,1212 210,1210 210,1207 210,1234 209,1241 209,1241 209,1253 209,1255 209,1285 208,1276 208,1270 208,1280 208,1287 208,1288 208,1316 207,1325 207,1321 207,1318 207,1313 207,1320 207,1314 206,1328 206,1344 206,1338 206,1346 205,1362 205,1347 205,1353 205,1369 205,1368 205,1375 204,1386 204,1372 204,1375 204,1379 204,1379 204,1382 203,1389 203,1370 203,1383 203,1382 203,1396 202,1378 202,1378 202,1384 202,1380 202,1375 202,1390 201,1379 201,1382 201,1391 201,1390 201,1403 200,1403 200,1401 200,1409 199,1412 199,1425 198,1442 198,1438 198,1458 197,1454 197,1465 196,1461 196,1485 196,1496 195,1504 195,1503 194,1508 194,1516 193,1526 193,1532 193,1534 192,1547 192,1538 192,1545 191,1543 191,1557 190,1567 190,1577 190,1580 189,1583 189,1589 188,1590 188,1601 188,1592 187,1606 187,1616 187,1613 186,1621 186,1632 186,1634 185,1635 185,1644 184,1650 184,1652 184,1657 183,1646 183,1665 182,1665 182,1662 182,1669 181,1669 181,1680 181,1672 181,1683 180,1702 180,1708 180,1707 179,1693 179,1711 178,1709 178,1704 178,1708 177,1708 177,1717 177,1727 177,1730 176,1730 176,1735 175,1741 175,1746 175,1748 175,1752 174,1759 174,1764 173,1768 173,1776 173,1777 173,1778 172,1782 172,1782 171,1788 171,1789 171,1793 171,1796 170,1800 170,1802 170,1803 169,1798 169,1809 169,1815 169,1819 168,1828 168,1823 168,1839 167,1829 167,1835 167,1835 166,1839 166,1843 166,1848 166,1843 165,1846 165,1850 165,1851 164,1856 164,1856 164,1860 163,1856 163,1864 163,1872 163,1871 163,1872 162,1873 162,1874 162,1877 161,1883 161,1886 161,1887 161,1891 160,1894 160,1900 160,1900 159,1899 159,1904 159,1902 158,1903 158,1906 158,1902 158,1905 157,1909 157,1912 157,1911 157,1912 157,1912 156,1913 156,1917 156,1918 156,1926 155,1925 155,1927 155,1927 155,1932 154,1929 154,1934 154,1943 154,1934 153,1941 153,1950 153,1956 153,1957 152,1955 152,1961 152,1959 152,1957 151,1962 151,1964 151,1969 151,1973 150,1975 150,1976 150,1977 150,1973 149,1977 149,1978 149,1986 148,1986 148,1987 148,1990 148,1990 147,1996 147,1993 147,1995 147,1998 147,2001 146,2003 146,2003 146,2011 146,2011 145,2006 145,2008 145,2009 145,2008 145,2013 144,2010 144,2008 144,2010 144,2012 144,2014 143,2014 143,2015 143,2017 143,2019 143,2020 142,2024 142,2020 141,2021 141,2021 141,2017 141,2021 141,2023 141,2025 140,2023 140,2030 140,2032 139,2033 139,2036 138,2039 138,2042 137,2046 137,2045 136,2048 135,2053 135,2059 134,2061 134,2065 133,2066 132,2071 132,2073 132,2071 131,2071 130,2074 130,2075 128,2077 128,2080 127,2093 126,2088 126,2081 125,2091 124,2092 124,2089 123,2095 122,2093 121,2092 120,2099 119,2100 119,2102 118,2104 117,2105 116,2107 115,2108 114,2110 113,2111 112,2112 111,2114 110,2115 109,2117 108,2118 107,2120 105,2121 104,2122 103,2123 101,2125 100,2126 98,2127 97,2128 95,2130 94,2131 92,2132 90,2133 88,2134 86,2135 83,2136 81,2137 78,2138 75,2139 72,2140 68,2141 64,2142 59,2143 53,2144 46,2144 36,2145 22,2145 0,2146"></polyline>
   </svg>