<?xml version="1.0" encoding="utf-8"?>
<!-- Generator: Adobe Illustrator 18.0.0, SVG Export Plug-In . SVG Version: 6.00 Build 0)  -->
<!DOCTYPE svg PUBLIC "-//W3C//DTD SVG 1.1//EN" "http://www.w3.org/Graphics/SVG/1.1/DTD/svg11.dtd">
<svg version="1.1" id="Слой_1" xmlns="http://www.w3.org/2000/svg" xmlns:xlink="http://www.w3.org/1999/xlink" x="0px" y="0px"
	 viewBox="-0.4 -30.8 768 798.8" enable-background="new -0.4 -30.8 768 798.8" xml:space="preserve">
<path fill="#808080"     d="M767.4,368.1
	c0-52.9-10.9-104.2-30.8-152.4c-9.9-24.1-22.3-46.9-37.1-68.4v-31.5h-23.1c-6.6-8.5-13.5-16.4-20.7-23.9
	c-35-36-75.8-64.6-121.2-84.3c-47-20.4-97-31-148.4-31S284.7-13.1,237.6,7.3C192.2,27.1,151.4,56.1,116.4,92
	c-7.2,7.4-14.1,15.3-20.7,23.8H65.1V154c-11.7,19.4-22.3,40-31.2,61.6C14.1,264,4.4,315.2,4.4,368.1s9.5,104.2,29.4,152.4
	c8.9,21.6,19.7,42.2,31.4,61.6V764h634.4V588.9c14.9-21.4,27.2-44.2,37.1-68.4C756.5,472.3,767.4,421,767.4,368.1z M695.2,120.1v21
	c-5.3-7.7-9.4-14.6-15.3-21H695.2z M466.1,746.7c-7.2-0.7-19.4-4.8-19.4-4.8c-2.6-1.8-24.6-14.7-24.6-14.7l-4-8.8
	c-4.8-8.1-2.9-38.5-2.9-38.5c2.2-11.4-1.5-44.8-1.5-44.8c-2.2-18,0-29.4,0-29.4c2.2-2.2,5.9-16.9,5.9-16.9c4-3.3,2.6-27.9,2.6-27.9
	c2.9-2.9,11-38.2,11-38.2c0,5.9,25.3,47.7,25.3,47.7c-1.8,2.9,7.7,27.9,7.7,27.9c2.2,30.1,22.8,39.6,22.8,39.6
	c4,19.1,19.1,33.8,19.1,33.8c6.6,7,14.7,18,14.7,18c1.5,3.3,5.5,12.5,5.5,12.5c0,6.2,2.9,15.4,2.9,15.4c1.9,2.9,4,4.5,6.1,5.3
	C514.6,733.2,490.8,741.2,466.1,746.7z M675.2,120.6c-2,0-4.2,0-4.2,0c-0.4-1.8-18.4,2-18.4,2c-2.9,4.4-12.8,7.2-12.8,7.2
	c-8.8,2.6-14,15-14,15c-7,0.7-19.1,7.7-19.1,7.7c-7.3,3.7-20.2,6.6-20.2,6.6c-33.5,2.4-59.5,27.5-59.5,27.5
	c-23.5,2.2-42.2,14.3-42.2,14.3c-29-9.9-41.1,3.6-41.1,3.6c-6.9,0.3-19.1,8-19.1,8l-4.9-2.8c3.8-1,8.3-8.3,8.3-8.3
	c5.6-1.4,6.6-14.2,6.6-14.2c5.6-3.1,3.9-12.2,3.9-12.2c6.3-8.7-2.2-12.7-2.2-12.7c5.9-13-2.1-12.7-2.1-12.7
	c-1.4-12.2-10.1-12.2-10.1-12.2c-0.3-15.3-10.8-16.2-10.8-16.2c-0.7-0.8-1.6-1.2-2.6-1.2h263.3C674.6,120.1,674.9,120.1,675.2,120.6
	z M356.6,123.7c-8,2.4-9.7,12.4-9.7,12.4c-10.8-4.5-11.8,10.6-11.8,10.6c-6.9,4.2-1.4,14.5-1.4,14.5c-3.5,4.5,1.7,11.1,1.7,11.1
	c-6.3,6.9,0.7,15.6,0.7,15.6c-1.7,3.5,4.5,8,4.5,8c-1.7,4.2,6.3,11.8,6.3,11.8l-2.4,2.1l-4.2-2.8c-26.4-14.9-49.3-7.3-49.3-7.3
	c-8.7-8-49.3-17.4-49.3-17.4c-13.2-18.4-73.6-29.5-73.6-29.5c-15.3-5.2-23.3-10.1-23.3-10.1c-3.8-9-12.8-14.2-12.8-14.2l-5.2-7.5
	c-0.6-0.6-1.2-0.9-1.9-0.9h237.4C358.4,122.2,356.6,123.7,356.6,123.7z M111.7,120.1c3,2.1,8.6,3.7,8.6,3.7v4.7
	c-3.2-2.8-11.2-6.3-16.5-8.4H111.7z M96.5,119.3c1.2,3.8,13.1,11.6,13.1,11.6c-2.4-0.3-14.7-4.5-14.7-4.5c0.7,6.5,5.7,8,5.7,8
	c6.3,1.7,15,11.1,15,11.1l-8-2.4c-5.6-3.8-10.1-4.5-10.1-4.5c0.3,7.6,20.3,13.9,20.3,13.9c13.2,14.3,23.1,12.5,23.1,12.5
	c2.9,2.9,26.8,13.9,26.8,13.9c29.7,25,67.1,27.6,67.1,27.6c7.7,7,44,20.2,44,20.2s12.5,2.6-1.5,0s-34.1,2-34.1,2
	c-10.3,2.9-17.2-2-17.2-2c-22.4-6.6-63.9-1.8-63.9-1.8c-4.8,1.1-31.2-1.5-31.2-1.5c-6.2-5.5-17.3-8.1-17.3-8.1l-5.9-1.8
	c-4.8-4-11.4-2.2-11.4-2.2c-8.8-0.4-12.1,0.7-12.1,0.7c-0.7,7,13.2,4.4,13.2,4.4l5.5,2.6c-8.4,0.4-10.3,1.8-10.3,1.8l-6.2-0.4
	c-4.8,0-15,3.7-15,3.7c-0.7,4,9.8,3.3,9.8,3.3c15.1,0.4,15.1,3.3,15.1,3.3l-11.4,0.7c-10.3,0-11.4,1.5-11.4,1.5
	c-0.4,5.5,27.2,5.5,27.2,5.5l-11.4,1.5c-6.2-0.4-8.1,2.2-8.1,2.2c-0.4,4.8,23.9,1.8,23.9,1.8l9.9,2.6c5.5,2.6,22.8,0,22.8,0
	c8.8-1.5,25.3,2.9,25.3,2.9c41.1,11,65.3,2.6,65.3,2.6c8.4,4.8,37.1,1.8,37.1,1.8c9.2,5.5,30.8,4.8,30.8,4.8
	c13.2-2.6,19.8,4.8,19.8,4.8c0.4,8.4,9.5,21.7,9.5,21.7c0.4,21.7,14.3,52.1,14.3,52.1c-1.8,0-4,14.7-4,14.7
	c-4.4,8.8-2.6,20.2-2.6,20.2c-2.6,0.4-5.9,19.8-5.9,19.8c-1.8,3.7-5.1,20.6-5.1,20.6c-7,6.2-23.1,43.3-23.1,43.3l-8.1,23.5
	c-4.4,7.7-7,34.1-7,34.1c-7.3,6.6-18.7,28.3-18.7,28.3l-21.7,23.1c-16.5,13.6-22.8,44.8-22.8,44.8c-1.8,4.4-10.6,48.8-10.6,48.8
	c0,4.4-9.9,21.7-9.9,21.7c-2.9,1.5-11.4,7.7-11.4,7.7c-6.5-1.2-9.8,2.1-10.9,4.3C135.5,662.8,98,624.9,69.4,580.6v-425
	C77.8,142.9,87.1,130.8,96.5,119.3z M214.4,712.6c7.7-0.4,5.7-13.2,5.7-13.2s-2-7.3,1.6-9.9c3.7-2.6,5.5-14.3,5.5-14.3
	c0.7-8.1,7-18.7,7-18.7c4.8-7,17.3-28.6,17.3-28.6c12.1-8.4,20.2-34.9,20.2-34.9c3.7-15.4,15.1-29.4,15.1-29.4
	c9.5-5.5,21.3-23.1,21.3-23.1c4.8-4.4,11.4-15.8,11.4-15.8c2.6-6.6,8.8-21.7,7.7-15.1c-0.1,0.4-0.1,0.9-0.1,1.5
	c0.1,9.2,8.9,40.4,8.9,40.4c-4.8,5.9-6.6,40-6.6,40l-5.9,25.3c-5.9,29.4,8.1,60.2,8.1,60.2c-2.2,7.3,18,44,18,44
	c-0.7,4-0.4,15.8-0.4,15.8c-5.9,4.4-1.5,11-1.5,11c-0.6,3,4.6,5.5,6.6,6.3c-50.4-4.4-98.1-19-140.9-41.8
	C214,712.5,214.4,712.6,214.4,712.6z M389.8,755.5c0.9-9.6-8.1-11.3-8.1-11.3l-5.5-11c-0.4-7-3.7-12.8-3.7-12.8
	c-5.1-5.9-6.6-20.2-6.6-20.2c0.4-10.6-2.9-26.1-2.9-26.1l-0.4-10.3c2.9-12.5-1.1-39.3-1.1-39.3c-4-14.7,0-27.5,0-27.5
	c3.7-2.6,6.2-19.5,6.2-19.5c3.3-4.8,3.8-27.5,3.8-27.5c0.8-26,4.8-39.7,7.6-46.2c-1.8,15.9,4,59.4,4,59.4c0,12.8-8.8,54.3-8.8,54.3
	c-9.2,31.6,7.3,54.3,7.3,54.3c-3.3,8.8,4.9,36.7,4.9,36.7c5.6,10.3,6.8,27.9,6.8,27.9c-4,9.2-3.7,14.7-3.7,14.7
	c0.5,1.9,1.4,3.3,2.7,4.3C391.6,755.5,390.7,755.5,389.8,755.5z M595,689.9c-0.3-5-8.1-4.5-8.1-4.5c-2.2-3.7-15.6,1.8-15.6,1.8
	c-2.2-1.1-18.6,0-18.6,0c-13.6-8.1-23.4-49.6-23.4-49.6c-5.9-29-25.7-55.8-25.7-55.8c-9.5-10.6-9.5-15.8-9.5-15.8
	c-2.6-21.3-7.7-26.8-7.7-26.8c-7.7-10.6-8.1-22.4-8.1-22.4c1.8-19.8-6.6-34.9-6.6-34.9c-2.2-12.5-13.9-35.2-13.9-35.2
	c0-1.8-12.1-25.3-12.1-25.3c2.2-11-4-27.9-4-27.9l-6.2-19.5c4.8-10.6-0.4-22-0.4-22c0-1.8-1.8-15.8-1.8-15.8c2.9-3.7,7-25.3,7-25.3
	c6.6-11.4,8.1-29.4,8.1-29.4l1.8-6.2c5.9-15.4,21.7-17.3,21.7-17.3c6.6,4,31.6-1.1,31.6-1.1c7.7,1.8,35.6-1.5,35.6-1.5
	c18.4,14.7,65.3-1.5,65.3-1.5c12.8-2.2,34.5-2.2,34.5-2.2c2.6,1.5,20.9,0,20.9,0l7.7-2.2c19.5-0.7,21.7-5.1,21.7-5.1
	c-1.1-4-20.2,0-20.2,0l1.1-4l14.7-0.1c8.8,0.7,7.3-5.9,7.3-5.9c2,0.1,3.4-0.1,3.4-0.5v353.1C668.7,627.7,634.7,662.5,595,689.9z
	 M564.6,709.2c-4.1,2.3-8.3,4.5-12.6,6.7c2.8-5.1,8.8-7.4,8.8-7.4C562.1,709,563.4,709.2,564.6,709.2z M695.2,229
	c-2.1-1.9-6.3-2.1-6.3-2.1c2.2,0,2.6-2.8,2.6-2.8c-3.7-4.8-20.2-4.4-20.2-4.4h-7c-12.5-2.1-24.2,8.4-24.2,8.4
	c-2.6-0.4-9.2,0.5-9.2,0.5c-7.7,2.9-31.6,0.2-31.6,0.2c-22-4-58.4,3.2-58.4,3.2c-12.8-5.1-40.2-3.1-40.2-3.1
	c10.2-1.5,45.1-21.2,45.1-21.2c25.5-1.4,41.6-16.2,41.6-16.2c26.9-21.1,49.3-25.1,49.3-25.1c5.7,1.2,12.6-2.4,12.6-2.4
	c2.7-2.7,9.9-8.7,9.9-8.7c2.4-0.9,12.6-8.4,12.6-8.4c7.2-5.7,4.3-9,4.3-9c-2.4-0.3-17,10.1-17,10.1v-2.6l5.5-4.5
	c2.4-0.9,8.7-5.9,8.7-5.9c9.2-4,8.2-7,8.2-7c-5-1.6-19,5.9-19,5.9l0.8-2.9c10.8-5,13-7.5,13.7-8.2c6.7,8.4,12.9,17.1,18.3,26
	L695.2,229L695.2,229z M386.1-17.7c113.5,0,215.4,50.8,284.6,133.5H101.5C170.7,33.1,272.6-17.7,386.1-17.7z M69.3,120.1h22.9
	c-7.6,8.5-15.5,17.4-22.9,27.4V120.1z M7.4,368.1C7.4,292.6,29,222,65.1,162.4v411.5C29,514.2,7.4,443.6,7.4,368.1z M69.3,588.7
	c13.8,20.1,29.3,38.9,46.3,56.3c35,36,76.2,65,121.6,84.7c36.4,15.8,74.9,25.7,114.2,30H69.3V588.7z M695.2,759.8H420.7
	c6.6-1.1,13.1-2.2,19.6-3.1c10.3,2.7,36.1,1.4,36.1,1.4c2.2,0,2.2-5.6,2.2-5.6c0.1-1.6-0.9-2.8-2.4-3.6
	c19.8-4.9,39.3-11.6,58.2-19.8c45.4-19.7,85.4-48,120.4-84c15.1-15.5,28.7-32.2,40.3-49.9V759.8z M699.5,155.4
	c39.3,61.1,62.1,134.2,62.1,212.7s-22.8,151.6-62.1,212.7V155.4z"/>
</svg>
