<?xml version="1.0" encoding="UTF-8" standalone="no"?>
<svg id="svg2" viewBox="0 0 600 600" xmlns="http://www.w3.org/2000/svg" xmlns:sodipodi="http://inkscape.sourceforge.net/DTD/sodipodi-0.dtd" height="420pt" sodipodi:version="0.32" width="420pt" version="1.0" y="0" x="0" xmlns:cc="http://web.resource.org/cc/" xmlns:xlink="http://www.w3.org/1999/xlink" sodipodi:docbase="/home/ha/win-fat/wikipedia/fizika-kepek" xmlns:dc="http://purl.org/dc/elements/1.1/">
 <metadata id="metadata49">

 </metadata>
 <sodipodi:namedview id="base" bordercolor="#666666" pagecolor="#ffffff" borderopacity="1.0"/>
 <defs id="defs3">
  <radialGradient id="radialGradient6178" gradientUnits="userSpaceOnUse" cy="779.99" cx="245.61" gradientTransform="matrix(-.28911 -.16692 .15426 -.26718 403.79 610.88)" r="160.64">
   <stop id="stop4198" stop-color="#fff" offset="0"/>
   <stop id="stop4200" stop-color="#00ea00" offset=".5"/>
   <stop id="stop4202" stop-color="#00af00" offset="1"/>
  </radialGradient>
  <radialGradient id="radialGradient6183" gradientUnits="userSpaceOnUse" cy="779.99" cx="245.61" gradientTransform="matrix(-.28911 -.16692 .15426 -.26718 509.02 447.96)" r="160.64">
   <stop id="stop4190" stop-color="#fff" offset="0"/>
   <stop id="stop4192" stop-color="#e31c1c" offset=".5"/>
   <stop id="stop4194" stop-color="#fa0000" offset="1"/>
  </radialGradient>
  <radialGradient id="radialGradient6188" gradientUnits="userSpaceOnUse" cy="779.99" cx="245.61" gradientTransform="matrix(-.28911 -.16692 .15426 -.26718 331.41 439.32)" r="160.64">
   <stop id="stop4206" stop-color="#fff" offset="0"/>
   <stop id="stop4208" stop-color="#00f" offset=".5"/>
   <stop id="stop4210" stop-color="#0000e5" offset="1"/>
  </radialGradient>
 </defs>
 <g id="g1648" transform="translate(-216.66 -8.4414)">
  <path id="path2312" style="color:#000000" d="m473.97 75.026c-105.89 0-191.9 85.934-191.9 191.82s86.01 191.82 191.9 191.82 191.82-85.93 191.82-191.82-85.93-191.82-191.82-191.82z" fill-rule="evenodd" stroke-dashoffset="6.2" display="block" stroke="#9e9e9e" stroke-linecap="round" stroke-width="2.092" fill="#c4c4c4"/>
  <path id="path4216" style="color:#000000" d="m388.74 147.6c-33.28 0-60.31 27.01-60.31 60.29s27.03 60.29 60.31 60.29 60.29-27.01 60.29-60.29-27.01-60.29-60.29-60.29z" fill-rule="evenodd" stroke-dashoffset="6.2" display="block" stroke="#9e9e9e" stroke-linecap="round" stroke-width=".65742" fill="url(#radialGradient6188)"/>
  <text id="text4220" stroke-linejoin="round" font-size="136.27px" xml:space="preserve" stroke="#000000" stroke-width="1.4195" fill="#ffffff" style="block-progression:tb;text-anchor:end;text-indent:0;color:#000000;text-transform:none;text-align:end" sodipodi:linespacing="100%" font-family="Bitstream Charter" line-height="100%" y="236.73361" x="423.11774"><tspan id="tspan4222" sodipodi:role="line" x="423.11773" y="236.73361">u</tspan></text>
  <path id="path4212" style="color:#000000" d="m566.35 156.24c-33.28 0-60.31 27-60.31 60.29 0 33.28 27.03 60.28 60.31 60.28 33.29 0 60.29-27 60.29-60.28 0-33.29-27-60.29-60.29-60.29z" fill-rule="evenodd" stroke-dashoffset="6.2" display="block" stroke="#9e9e9e" stroke-linecap="round" stroke-width=".65742" fill="url(#radialGradient6183)"/>
  <text id="text4224" stroke-linejoin="round" font-size="131.63px" xml:space="preserve" stroke="#000000" stroke-width="1.3712" fill="#ffffff" style="block-progression:tb;text-anchor:end;text-indent:0;color:#000000;text-transform:none;text-align:end" sodipodi:linespacing="100%" font-family="Bitstream Charter" line-height="100%" y="251.84439" x="605.42828"><tspan id="tspan4226" sodipodi:role="line" x="605.42829" y="251.84439">u</tspan></text>
  <path id="path3275" style="color:#000000" d="m469.56 316.35c-33.28 0-60.31 27-60.31 60.29 0 33.28 27.03 60.28 60.31 60.28s60.29-27 60.29-60.28c0-33.29-27.01-60.29-60.29-60.29z" fill-rule="evenodd" stroke-dashoffset="6.2" display="block" stroke="#9e9e9e" stroke-linecap="round" stroke-width=".65742" fill="url(#radialGradient6178)"/>
  <text id="text4228" stroke-linejoin="round" font-size="124.63px" xml:space="preserve" stroke="#000000" stroke-width="1.2982" fill="#fefefe" style="block-progression:tb;text-anchor:end;text-indent:0;color:#000000;text-transform:none;text-align:end" sodipodi:linespacing="100%" font-family="Bitstream Charter" line-height="100%" y="417.99271" x="503.93839"><tspan id="tspan4230" sodipodi:role="line" x="503.93839" y="417.99271">d</tspan></text>
  <path id="path5123" stroke-linejoin="round" d="m440.42 208.77s3.56-24.68 9.87-24.13 8.5 25.77 15.35 26.32c6.86 0.55 5.76-23.85 12.07-24.12 6.3-0.28 7.13 22.48 13.16 23.03 6.03 0.54 5.21-20.84 10.96-20.84 5.76 0 12.07 20.84 12.07 20.84" sodipodi:nodetypes="csssssc" stroke="#ffb" stroke-linecap="round" stroke-width="7.6623" fill="none"/>
  <path id="path5125" stroke-linejoin="round" d="m536.4 264.39s19.8 16 16.13 21.38-26.86-5.73-30.8 0.14c-3.95 5.87 17.97 17.54 15.02 23.35-2.95 5.8-23.29-5.26-26.81-0.12-3.53 5.13 15.61 15.48 12.7 20.65-2.92 5.17-24.34 0.03-24.34 0.03" sodipodi:nodetypes="csssssc" stroke="#fdffbd" stroke-linecap="round" stroke-width="7.8459" fill="none"/>
  <path id="path5127" stroke-linejoin="round" d="m444.22 326.22s-23.25 9.29-25.94 3.53 18.15-20.33 15.18-26.57c-2.96-6.24-23.64 6.97-27.04 1.62-3.41-5.34 15.97-17.49 13.42-23.01s-20.74 5.93-23.63 0.93c-2.89-5.01 12.06-20.96 12.06-20.96" sodipodi:nodetypes="csssssc" stroke="#ffffd8" stroke-linecap="round" stroke-width="7.6958" fill="none"/>
 </g>
</svg>
