<?xml version="1.0" encoding="utf-8"?>
<!-- Generator: Adobe Illustrator 16.0.0, SVG Export Plug-In . SVG Version: 6.00 Build 0)  -->
<!DOCTYPE svg PUBLIC "-//W3C//DTD SVG 1.1//EN" "http://www.w3.org/Graphics/SVG/1.1/DTD/svg11.dtd">
<svg version="1.1" xmlns="http://www.w3.org/2000/svg" xmlns:xlink="http://www.w3.org/1999/xlink" x="0px" y="0px" width="504px"
	 height="343px" viewBox="0 0 504 343" enable-background="new 0 0 504 343" xml:space="preserve">
<g id="Layer_1">
	<g>
		<g>
			<g>
				<path fill="#73B243" d="M12.079,342.759c-6.627,0-12-5.373-12-12V12.242c0-6.627,5.373-12,12-12h479.842c6.628,0,12,5.373,12,12
					v318.517c0,6.627-5.372,12-12,12H12.079z"/>
			</g>
			<rect x="12.079" y="12.241" fill="#7EB757" width="29.99" height="318.518"/>
			<rect x="72.06" y="12.241" fill="#7EB757" width="29.99" height="318.518"/>
			<rect x="132.04" y="12.241" fill="#7EB757" width="29.99" height="318.518"/>
			<rect x="192.021" y="12.241" fill="#7EB757" width="29.989" height="318.518"/>
			<rect x="252" y="12.241" fill="#7EB757" width="29.99" height="318.518"/>
			<rect x="311.98" y="12.241" fill="#7EB757" width="29.99" height="318.518"/>
			<rect x="371.961" y="12.241" fill="#7EB757" width="29.989" height="318.518"/>
			<rect x="431.941" y="12.241" fill="#7EB757" width="29.989" height="318.518"/>
		</g>
	</g>
	<path fill="#FFFFFF" d="M11.732,11.196v71.971v47.979v80.714v48.479v71.467h480.535v-71.467V83.167V11.196H11.732z M491.018,15.798
		c-1.722-0.271-3.076-1.628-3.347-3.353h3.347V15.798z M251.624,210.426c-21.181-0.336-38.31-17.662-38.31-38.924
		s17.129-38.588,38.31-38.925V210.426z M252.874,132.577c21.185,0.337,38.317,17.663,38.317,38.925s-17.133,38.588-38.317,38.924
		V132.577z M16.269,12.446c-0.268,1.704-1.592,3.052-3.287,3.346v-3.346H16.269z M12.982,132.395h22.238v78.214H12.982V132.395z
		 M36.471,211.859v-80.714H12.982V84.417h70.22v118.945c-0.201,0.143-0.394,0.295-0.598,0.432l0.598,0.887v54.408h-70.22v-47.229
		H36.471z M84.452,140.557c9.615,7.354,15.321,18.801,15.321,30.945c0,12.196-5.688,23.604-15.321,30.959V140.557z M12.982,327.088
		c1.735,0.301,3.078,1.707,3.299,3.467h-3.299V327.088z M487.658,330.555c0.224-1.781,1.597-3.195,3.359-3.473v3.473H487.658z
		 M491.018,131.145h-23.554v80.714h23.554v47.229h-70.217V84.417h70.217V131.145z M490.955,132.395v78.214h-22.241v-78.214H490.955z
		 M419.551,83.167v56.181l-0.002-0.002c-10.213,7.673-16.07,19.394-16.07,32.157c0,12.583,6.007,24.581,16.072,32.147v56.689h71.467
		v65.494c-2.451,0.293-4.373,2.254-4.609,4.723H17.531c-0.234-2.447-2.126-4.396-4.549-4.717v-65.5h71.47v-56.336
		c10.395-7.564,16.571-19.6,16.571-32.5c0-12.851-6.188-24.946-16.571-32.507V83.167h-71.47V17.042
		c2.382-0.314,4.25-2.205,4.537-4.596h234.105v118.881c-21.87,0.337-39.56,18.223-39.56,40.175s17.69,39.838,39.56,40.174v118.672
		h1.25V211.676c21.874-0.336,39.567-18.223,39.567-40.174s-17.693-39.838-39.567-40.175V12.446h233.547
		c0.288,2.413,2.187,4.314,4.597,4.603v66.118H419.551z M419.551,202.057c-9.428-7.438-14.822-18.502-14.822-30.555
		c0-12.045,5.397-23.123,14.822-30.562V202.057z"/>
</g>
<g id="Layer_2" display="none">
	<g display="inline">
		<path fill="#1C71B9" d="M50.95,146.858c0,0-20.45,11.142-37.45,18.642"/>
		<g>
			<path fill="none" stroke="#FFFFFF" stroke-width="2" stroke-miterlimit="10" d="M50.95,146.858c0,0-18.82,10.254-35.36,17.71"/>
			<g>
				<polygon fill="#FFFFFF" points="17.748,159.776 16.107,164.284 20.615,165.921 18.006,167.139 13.5,165.5 15.139,160.994 				
					"/>
			</g>
		</g>
	</g>
	<g display="inline" opacity="0.4">
		<g>
			<path fill="none" stroke="#FFFFFF" stroke-width="2" stroke-miterlimit="10" d="M69,199c0,0-33.104-11.994-55.606-40.683"/>
			<g>
				<polygon fill="#FFFFFF" points="18.568,159.27 13.8,158.744 13.278,163.512 11.477,161.267 12,156.5 16.767,157.023 				"/>
			</g>
		</g>
	</g>
	<g display="inline" opacity="0.4">
		<g>
			<path fill="none" stroke="#FFFFFF" stroke-width="2" stroke-miterlimit="10" d="M51.49,214.001c0,0-24.247-25.531-31.546-61.253"
				/>
			<g>
				<polygon fill="#FFFFFF" points="24.146,155.913 20.116,153.312 17.517,157.342 16.91,154.528 19.51,150.499 23.539,153.099 				
					"/>
			</g>
		</g>
	</g>
	<g display="inline" opacity="0.4">
		<g>
			<path fill="none" stroke="#FFFFFF" stroke-width="2" stroke-miterlimit="10" d="M88.257,143.421c0,0-36.792,5.736-74.21,38.399"
				/>
			<g>
				<polygon fill="#FFFFFF" points="14.913,176.689 14.525,181.47 19.306,181.854 17.113,183.72 12.333,183.334 12.72,178.555 				
					"/>
			</g>
		</g>
	</g>
	<g display="inline" opacity="0.4">
		<g>
			<path fill="none" stroke="#FFFFFF" stroke-width="2" stroke-miterlimit="10" d="M109.869,222.446
				c0,0-28.156-23.431-99.434-53.415"/>
			<g>
				<polygon fill="#FFFFFF" points="15.43,167.556 10.963,169.301 12.711,173.768 10.074,172.613 8.327,168.147 12.793,166.401 				
					"/>
			</g>
		</g>
	</g>
	<g display="inline" opacity="0.4">
		<g>
			<path fill="none" stroke="#FFFFFF" stroke-width="2" stroke-miterlimit="10" d="M82,224c0,0-5.422-10.92-65.711-58.585"/>
			<g>
				<polygon fill="#FFFFFF" points="21.506,165.278 16.738,165.799 17.262,170.566 15.017,168.765 14.495,163.998 19.261,163.476 
									"/>
			</g>
		</g>
	</g>
	<g display="inline" opacity="0.4">
		<g>
			<path fill="none" stroke="#FFFFFF" stroke-width="2" stroke-miterlimit="10" d="M101.978,102.022
				c0,0-32.125,17.599-86.164,72.911"/>
			<g>
				<polygon fill="#FFFFFF" points="16.273,169.745 16.258,174.541 21.055,174.554 19.013,176.584 14.218,176.57 14.231,171.775 
									"/>
			</g>
		</g>
	</g>
	<g display="inline" opacity="0.4">
		<g>
			<path fill="none" stroke="#FFFFFF" stroke-width="2" stroke-miterlimit="10" d="M125.982,156.673c0,0-36.071-6.37-112.833,2.968"
				/>
			<g>
				<polygon fill="#FFFFFF" points="16.753,155.881 13.741,159.613 17.475,162.624 14.613,162.931 10.88,159.92 13.891,156.188 				
					"/>
			</g>
		</g>
	</g>
	<g display="inline" opacity="0.4">
		<g>
			<path fill="none" stroke="#FFFFFF" stroke-width="2" stroke-miterlimit="10" d="M70,240.5c0,0-15.117-29.747-55.873-74.101"/>
			<g>
				<polygon fill="#FFFFFF" points="19.281,167.14 14.492,166.866 14.221,171.655 12.304,169.506 12.577,164.719 17.364,164.992 
									"/>
			</g>
		</g>
	</g>
	<g display="inline" opacity="0.8">
		<circle fill="#1C71B9" cx="121.196" cy="155.593" r="7.143"/>
		
			<circle fill="none" stroke="#FFFFFF" stroke-width="2" stroke-miterlimit="10" stroke-dasharray="2.0371,2.0371" cx="121.196" cy="155.593" r="7.143"/>
	</g>
	<g display="inline" opacity="0.8">
		<circle fill="#1C71B9" cx="85.696" cy="145.593" r="7.143"/>
		
			<circle fill="none" stroke="#FFFFFF" stroke-width="2" stroke-miterlimit="10" stroke-dasharray="2.0371,2.0371" cx="85.696" cy="145.593" r="7.143"/>
	</g>
	<g display="inline" opacity="0.8">
		<circle fill="#1C71B9" cx="419" cy="115.5" r="7.143"/>
		
			<circle fill="none" stroke="#FFFFFF" stroke-width="2" stroke-miterlimit="10" stroke-dasharray="2.0371,2.0371" cx="419" cy="115.5" r="7.143"/>
	</g>
	<g display="inline" opacity="0.8">
		<circle fill="#1C71B9" cx="413" cy="206" r="7.143"/>
		
			<circle fill="none" stroke="#FFFFFF" stroke-width="2" stroke-miterlimit="10" stroke-dasharray="2.0371,2.0371" cx="413" cy="206" r="7.143"/>
	</g>
	<g display="inline" opacity="0.8">
		<circle fill="#1C71B9" cx="447.5" cy="202.5" r="7.143"/>
		
			<circle fill="none" stroke="#FFFFFF" stroke-width="2" stroke-miterlimit="10" stroke-dasharray="2.0371,2.0371" cx="447.5" cy="202.5" r="7.143"/>
	</g>
	<g display="inline" opacity="0.8">
		<circle fill="#1C71B9" cx="447.5" cy="129" r="7.143"/>
		
			<circle fill="none" stroke="#FFFFFF" stroke-width="2" stroke-miterlimit="10" stroke-dasharray="2.0371,2.0371" cx="447.5" cy="129" r="7.143"/>
	</g>
	<g display="inline" opacity="0.8">
		<circle fill="#1C71B9" cx="69.696" cy="239.094" r="7.143"/>
		
			<circle fill="none" stroke="#FFFFFF" stroke-width="2" stroke-miterlimit="10" stroke-dasharray="2.0371,2.0371" cx="69.696" cy="239.094" r="7.143"/>
	</g>
	<g display="inline" opacity="0.8">
		<circle fill="#1C71B9" cx="106" cy="221" r="7.143"/>
		
			<circle fill="none" stroke="#FFFFFF" stroke-width="2" stroke-miterlimit="10" stroke-dasharray="2.0371,2.0371" cx="106" cy="221" r="7.143"/>
	</g>
	<g display="inline" opacity="0.8">
		<circle fill="#1C71B9" cx="82" cy="224" r="7.143"/>
		
			<circle fill="none" stroke="#FFFFFF" stroke-width="2" stroke-miterlimit="10" stroke-dasharray="2.0371,2.0371" cx="82" cy="224" r="7.143"/>
	</g>
	<g display="inline">
		<g>
			<path fill="none" stroke="#FFFFFF" stroke-width="2" stroke-miterlimit="10" d="M99.45,187.857c0,0-62.229-1.766-87.58-18.542"/>
			<g>
				<polygon fill="#FFFFFF" points="17.084,168.783 12.365,169.638 13.223,174.357 10.856,172.718 10,168 14.718,167.144 				"/>
			</g>
		</g>
	</g>
	
		<circle display="inline" fill="#1C71B9" stroke="#FFFFFF" stroke-width="2" stroke-miterlimit="10" cx="99.45" cy="187.857" r="7.143"/>
	
		<circle display="inline" fill="#1C71B9" stroke="#FFFFFF" stroke-width="2" stroke-miterlimit="10" cx="389.5" cy="136" r="7.143"/>
	<g display="inline">
		<g>
			<path fill="none" stroke="#FFFFFF" stroke-width="2" stroke-miterlimit="10" d="M70.45,120.358c0,0-41.298,30.075-59.122,54.286"
				/>
			<g>
				<polygon fill="#FFFFFF" points="11.029,169.447 11.72,174.193 16.466,173.5 14.745,175.809 10,176.5 9.309,171.755 				"/>
			</g>
		</g>
	</g>
	
		<circle display="inline" fill="#1C71B9" stroke="#FFFFFF" stroke-width="2" stroke-miterlimit="10" cx="70.45" cy="120.358" r="7.143"/>
	
		<circle display="inline" fill="#1C71B9" stroke="#FFFFFF" stroke-width="2" stroke-miterlimit="10" cx="421.45" cy="175.857" r="7.143"/>
	<g display="inline" opacity="0.8">
		<circle fill="#1C71B9" cx="101.196" cy="101.593" r="7.143"/>
		
			<circle fill="none" stroke="#FFFFFF" stroke-width="2" stroke-miterlimit="10" stroke-dasharray="2.0371,2.0371" cx="101.196" cy="101.593" r="7.143"/>
	</g>
	
		<circle display="inline" fill="#1C71B9" stroke="#FFFFFF" stroke-width="2" stroke-miterlimit="10" cx="50.95" cy="146.858" r="7.143"/>
	<g display="inline" opacity="0.8">
		<circle fill="#1C71B9" cx="69" cy="199" r="7.143"/>
		
			<circle fill="none" stroke="#FFFFFF" stroke-width="2" stroke-miterlimit="10" stroke-dasharray="2.0371,2.0371" cx="69" cy="199" r="7.143"/>
	</g>
	<g display="inline" opacity="0.8">
		<circle fill="#1C71B9" cx="50" cy="212.5" r="7.143"/>
		
			<circle fill="none" stroke="#FFFFFF" stroke-width="2" stroke-miterlimit="10" stroke-dasharray="2.037,2.037" cx="50" cy="212.5" r="7.143"/>
	</g>
</g>
<g id="Layer_3" display="none">
</g>
</svg>
