<?xml version="1.0" encoding="utf-8"?>
<!-- Generator: Adobe Illustrator 17.1.0, SVG Export Plug-In . SVG Version: 6.00 Build 0)  -->
<!DOCTYPE svg PUBLIC "-//W3C//DTD SVG 1.1//EN" "http://www.w3.org/Graphics/SVG/1.1/DTD/svg11.dtd">
<svg version="1.1" xmlns="http://www.w3.org/2000/svg" xmlns:xlink="http://www.w3.org/1999/xlink" x="0px" y="0px"
	 viewBox="0 0 800 800" style="enable-background:new 0 0 800 800;" xml:space="preserve">
<style type="text/css">
	.st0{fill:#ffffff; fill-opacity:0.5;}
	.st1{fill:#CAFFCA;}
	.st2{fill:#FFD9D9;stroke:#FF5C5C;stroke-width:3;stroke-miterlimit:10;}
	.st3{opacity:0.9;fill:#0000FF;}
	.st4{opacity:0.9;fill:#3C3CFF;}
	.st5{opacity:0.9;fill:#5F5FFF;}
	.st6{fill:#FFFFFF;}

</style>
<g id="up-quark-layer-0">
	<circle class="st0" cx="400" cy="400" r="375"/>
</g>
<g id="up-quark-layer-1">
	<polygon class="st1" points="389.3,76.7 424.3,241.2 401.1,205 418.8,367.2 459.3,292.7 456.9,335.6 507.9,268.3 474.4,346.1 
		507.9,327.7 481.8,369.3 602.3,303.2 504.1,411.3 558.9,399 515.3,433.3 569.9,430.7 546.5,445.7 661.7,452.9 523.2,483.6 
		539.8,496.5 510.3,497.7 587.7,544.7 500,524.1 604.2,624.4 462.6,558.3 483.7,622.5 439.6,580.8 447.8,629.5 419.3,587.5 
		398,683.3 371.2,586.3 352.1,625.3 353.7,587.5 304.3,636.4 319.9,568.9 177.9,644.8 275.3,532.9 241.6,535.9 256.9,521.7 
		173.3,530.3 269.6,490.5 138.3,461.1 282.8,438.8 227.2,410.5 281.3,417.5 202.3,338.7 301.4,391.6 276.3,350.9 307.7,372 
		267.4,264.7 348.9,355.2 334.7,302 368.7,352.8 381.2,206.2 358,245.8 	"/>
</g>
<g id="up-quark-layer-2">
	<polygon class="st2" points="461.9,505.4 493.1,505.4 463.4,484.3 551.5,463.2 471.5,455.1 500.2,425.9 465.1,434.5 539,353.1 
		436.5,420.6 454.7,363.1 408.7,412.9 393.6,180 411.1,208.4 390.3,109.7 371.9,210.3 389.6,179.8 377.6,405.9 314.4,341.1 
		343.6,415.8 316.8,401.9 323,418.2 288,405.9 325.4,450.3 227.2,464.2 329.2,483.8 281.8,510.2 327.8,507.8 242,595.4 349.8,533.2 
		335,585.4 373.8,540.8 397.7,645.1 411.1,550.4 423.1,563.3 426.5,552.3 455.2,579.6 435.1,526 521.3,570.5 	"/>
</g>
<g id="up-quark-layer-3">
	<circle class="st3" cx="395.3" cy="475.2" r="38.3"/>
	<circle class="st4" cx="397.4" cy="473.2" r="35.8"/>
	<circle class="st5" cx="399" cy="471.5" r="33.7"/>
</g>
<g id="up-quark-layer-4">
	<ellipse class="st6" cx="424.7" cy="467.8" rx="3.5" ry="3.7"/>
	
		<ellipse transform="matrix(0.8818 0.4717 -0.4717 0.8818 262.0842 -140.2331)" class="st6" cx="410.8" cy="452.7" rx="13.7" ry="7.7"/>

</g>
</svg>
